<svg xmlns="http://www.w3.org/2000/svg" width="29" height="29" viewBox="0 0 29 29">
    <path fill="#6D6D6D" fill-rule="evenodd" d="M14.862 29C7.054 29 .724 22.508.724 14.5S7.054 0 14.862 0 29 6.492 29 14.5 22.67 29 14.862 29zm2.505-14.003c0 1.552-1.234 2.817-2.747 2.817s-2.747-1.265-2.747-2.817c0-1.551 1.234-2.817 2.747-2.817s2.747 1.266 2.747 2.817zm1.48 0c0-2.399-1.888-4.336-4.227-4.336-2.34 0-4.228 1.937-4.228 4.336 0 2.4 1.889 4.336 4.228 4.336 2.339 0 4.227-1.937 4.227-4.336zm1.159-4.512a.997.997 0 0 0-.987-1.012.997.997 0 0 0-.987 1.012c0 .562.44 1.013.987 1.013a.997.997 0 0 0 .987-1.013zm-5.386-2.42c1.201 0 3.777-.1 4.86.34.376.155.655.342.944.639.29.297.473.583.623.968.429 1.112.332 3.753.332 4.985 0 1.233.097 3.874-.332 4.985-.15.385-.333.671-.623.969a2.63 2.63 0 0 1-.944.638c-1.083.44-3.659.341-4.86.341-1.202 0-3.777.099-4.86-.341a2.63 2.63 0 0 1-.945-.638 2.709 2.709 0 0 1-.622-.969c-.43-1.111-.333-3.752-.333-4.985 0-1.232-.097-3.873.333-4.985.15-.385.332-.671.622-.968a2.63 2.63 0 0 1 .944-.639c1.084-.44 3.659-.34 4.86-.34zm8.24 6.932c0-1.166.01-2.322-.054-3.488-.064-1.354-.364-2.553-1.33-3.544-.966-.99-2.135-1.298-3.455-1.364-1.137-.066-2.264-.055-3.401-.055-1.138 0-2.264-.011-3.402.055-1.32.066-2.489.374-3.455 1.364-.965.99-1.266 2.19-1.33 3.544-.064 1.166-.054 2.322-.054 3.488 0 1.167-.01 2.322.054 3.489.064 1.353.365 2.553 1.33 3.543.966.99 2.136 1.299 3.455 1.365 1.138.066 2.264.055 3.402.055 1.137 0 2.264.01 3.401-.055 1.32-.066 2.49-.375 3.455-1.365.966-.99 1.266-2.19 1.33-3.543.065-1.167.054-2.322.054-3.489z"/>
</svg>
