<svg xmlns="http://www.w3.org/2000/svg" width="29" height="29" viewBox="0 0 29 29">
    <path fill="#6D6D6D" fill-rule="evenodd" d="M14.62 29C6.814 29 .484 22.508.484 14.5S6.813 0 14.62 0s14.138 6.492 14.138 14.5S22.429 29 14.62 29zm1.936-11.333c0-.485-.139-.738-.418-.738-.16 0-.322.077-.483.242v3.313c.161.165.322.242.483.242.279 0 .418-.242.418-.737v-2.322zm3.627.01c0-.495-.16-.748-.483-.748-.322 0-.483.253-.483.749v.506h.966v-.506zM9.818 15.28v6.261H8.745V15.28H7.62v-1.035h3.347v1.035H9.818zm3.09 6.261v-.594c-.386.451-.75.671-1.094.671-.311 0-.537-.132-.622-.407-.054-.165-.086-.418-.086-.803v-4.303h.955v4.006c0 .23 0 .352.01.385.022.154.097.23.226.23.193 0 .397-.153.611-.461v-4.16h.955v5.436h-.955zm4.603-1.628c0 .506-.021.869-.096 1.1-.118.396-.386.605-.762.605-.343 0-.676-.198-.998-.605v.528H14.7v-7.296h.955v2.388c.311-.396.644-.594.998-.594.376 0 .644.21.762.616.075.22.096.584.096 1.09v2.168zm3.627-.11c0 .319 0 .539-.021.638-.022.22-.108.418-.226.594-.257.385-.654.583-1.159.583-.504 0-.88-.187-1.158-.56-.204-.265-.312-.694-.312-1.277v-1.904c0-.583.097-1.002.3-1.277.28-.374.655-.561 1.149-.561.483 0 .858.187 1.137.561.193.275.29.694.29 1.277v1.133h-1.92v.958c0 .506.16.759.493.759.236 0 .376-.132.43-.396.01-.055.02-.275.02-.671h.977v.143zM14.614 9.754c0 .507-.14.77-.461.77-.311 0-.461-.263-.461-.77v-2.31c0-.507.15-.76.461-.76.322 0 .461.253.461.76v2.31zm7.715 8.265c0-1.277 0-2.62-.279-3.852-.193-.87-.89-1.507-1.717-1.606-1.974-.22-3.97-.22-5.955-.22-1.985 0-3.98 0-5.944.22-.837.099-1.524.737-1.727 1.606-.269 1.233-.28 2.575-.28 3.852 0 1.265 0 2.619.28 3.851.193.87.89 1.508 1.716 1.596 1.975.231 3.97.231 5.955.231 1.985 0 3.981 0 5.955-.23.827-.089 1.513-.727 1.717-1.597.268-1.232.279-2.586.279-3.851zM11.621 3.977l-.73 2.894-.762-2.894H8.992c.225.682.461 1.376.697 2.058.344 1.023.558 1.794.655 2.333v2.982h1.073V8.368l1.298-4.39h-1.094zm3.97 3.665c0-.584-.097-1.013-.3-1.288-.269-.374-.644-.561-1.138-.561-.483 0-.858.187-1.127.561-.203.275-.3.704-.3 1.288v1.925c0 .584.097 1.013.3 1.299.269.374.644.561 1.127.561.494 0 .87-.187 1.137-.561.204-.275.3-.715.3-1.299V7.642zm3.594-1.783h-.976v4.193c-.215.319-.419.473-.612.473-.129 0-.204-.088-.225-.242-.01-.022-.01-.154-.01-.385v-4.04h-.977v4.337c0 .396.032.66.086.825.096.275.322.407.633.407.354 0 .719-.22 1.105-.682v.605h.976V5.86z"/>
</svg>
